<?xml version="1.0" standalone="no"?>
<!DOCTYPE svg PUBLIC "-//W3C//DTD SVG 20010904//EN"
 "http://www.w3.org/TR/2001/REC-SVG-20010904/DTD/svg10.dtd">
<svg version="1.0" xmlns="http://www.w3.org/2000/svg"
 width="300.000000pt" height="300.000000pt" viewBox="0 0 300.000000 300.000000"
 preserveAspectRatio="xMidYMid meet">
<metadata>
Created by potrace 1.14, written by Peter Selinger 2001-2017
</metadata>
<g transform="translate(0.000000,300.000000) scale(0.100000,-0.100000)"
fill="#000000" stroke="none">
<path d="M1106 2028 c-92 -17 -202 -77 -277 -151 -144 -142 -192 -375 -117
-567 81 -208 272 -340 492 -340 44 0 88 1 96 3 8 2 31 7 50 11 175 40 340 213
383 402 13 53 15 171 4 214 -2 8 -7 31 -11 50 -13 59 -75 166 -126 219 -74 77
-173 134 -275 157 -40 10 -171 11 -219 2z m258 -217 c75 -37 128 -92 164 -170
38 -80 38 -202 0 -281 -43 -91 -140 -174 -233 -197 -113 -27 -244 10 -329 94
-130 129 -134 350 -7 481 47 48 116 91 161 99 13 2 27 7 30 10 3 3 37 3 77 1
55 -4 88 -13 137 -37z"/>
<path d="M144 1498 l1 -533 90 0 90 0 0 533 1 532 -92 0 -91 0 1 -532z"/>
</g>
</svg>
